PathFileType	4	(X/Y/Z)	C:/Users/opensim2020/Desktop/walking_exp_matlab/subject03_walking09_straight_02.trc																																																																																																																																											
DataRate	CameraRate	NumFrames	NumMarkers	Units	OrigDataRate	OrigDataStartFrame	OrigNumFrames																																																																																																																																							
100	100	8	47	mm	100	2109	364																																																																																																																																							
Frame#	Time	LFHD			RFHD			LBHD			RBHD			C7			T10			CLAV			STRN			RBAK			LSHO			LUPA			LELB			LFRM			LWRA			LWRB			LFIN			RSHO			RUPA			RELB			RFRM			RWRA			RWRB			RFIN			LASI			RASI			LPSI			RPSI			LTHI			LKNE			LTIB			LANK			LHEE			LTOE			RTHI			RKNE			RTIB			RANK			RHEE			RTOE			*39			*40			*41			*42			*43			*44			*45			*46		
		X1	Y1	Z1	X2	Y2	Z2	X3	Y3	Z3	X4	Y4	Z4	X5	Y5	Z5	X6	Y6	Z6	X7	Y7	Z7	X8	Y8	Z8	X9	Y9	Z9	X10	Y10	Z10	X11	Y11	Z11	X12	Y12	Z12	X13	Y13	Z13	X14	Y14	Z14	X15	Y15	Z15	X16	Y16	Z16	X17	Y17	Z17	X18	Y18	Z18	X19	Y19	Z19	X20	Y20	Z20	X21	Y21	Z21	X22	Y22	Z22	X23	Y23	Z23	X24	Y24	Z24	X25	Y25	Z25	X26	Y26	Z26	X27	Y27	Z27	X28	Y28	Z28	X29	Y29	Z29	X30	Y30	Z30	X31	Y31	Z31	X32	Y32	Z32	X33	Y33	Z33	X34	Y34	Z34	X35	Y35	Z35	X36	Y36	Z36	X37	Y37	Z37	X38	Y38	Z38	X39	Y39	Z39	X40	Y40	Z40	X41	Y41	Z41	X42	Y42	Z42	X43	Y43	Z43	X44	Y44	Z44	X45	Y45	Z45	X46	Y46	Z46	X47	Y47	Z47
																																																																																																																																														
274	2.73	463.039	1627.58093	-1481.6261	442.62344	1626.15405	-1349.68091	335.00107	1586.62341	-1497.77405	319.91367	1584.87292	-1367.41553	297.26428	1421.41382	-1441.32092	270.48209	1106.57947	-1441.29639	420.93106	1347.45679	-1437.17773	468.01718	1183.88953	-1448.05786	247.60695	1241.45166	-1347.36304	382.32126	1386.36511	-1593.21423	394.57193	1190.87524	-1665.31824	413.65002	1068.79736	-1676.20496	454.04691	944.81537	-1672.9856	483.3316	829.94403	-1639.95618	465.32523	832.37799	-1692.9043	485.26044	749.70416	-1679.35779	372.22009	1364.64111	-1278.42627	379.75671	1139.60437	-1211.53625	398.49112	1027.99414	-1201.72498	416.8811	892.18854	-1202.52405	447.06351	797.48816	-1240.23511	417.24832	791.64618	-1195.18896	437.4599	719.68378	-1208.43958	430.61563	940.01917	-1565.80884	446.7551	948.17938	-1328.39014	271.83112	964.34998	-1505.41455	283.26987	979.47327	-1357.21423	367.03699	634.93567	-1615.802	371.92444	454.74219	-1596.92737	217.61058	331.22852	-1579.9502	70.76761	190.44182	-1526.02429	26.60056	200.07649	-1479.95935	129.32962	51.80488	-1510.46716	404.49689	654.98804	-1285.30396	434.68887	476.59692	-1325.38293	408.87137	288.7756	-1322.94531	406.58289	73.21246	-1374.49133	363.23376	41.0495	-1426.02234	549.08246	38.37122	-1390.61218	NaN	NaN	NaN	NaN	NaN	NaN	NaN	NaN	NaN	NaN	NaN	NaN	NaN	NaN	NaN	NaN	NaN	NaN	NaN	NaN	NaN	NaN	NaN	NaN
275	2.74	470.79816	1627.59705	-1481.48022	450.64511	1626.13684	-1349.45581	342.72647	1586.64343	-1497.35925	327.88089	1584.85413	-1366.98145	304.88385	1421.61926	-1440.56091	277.38721	1106.89966	-1440.70337	428.3736	1347.34229	-1437.13977	475.07632	1183.66553	-1448.10156	255.19899	1241.78137	-1346.33704	388.98273	1386.05969	-1593.11987	399.88632	1190.28979	-1665.19788	418.54221	1068.16479	-1676.19421	458.07324	943.87921	-1673.20007	486.23071	828.65979	-1640.41467	468.46329	831.43329	-1693.38184	487.70975	748.63367	-1680.29651	380.57529	1364.49963	-1278.07104	389.12418	1139.72595	-1210.6062	408.42072	1028.20789	-1200.36523	428.05872	892.54126	-1201.349	458.74826	798.17535	-1239.28967	429.29565	792.03351	-1193.95471	450.56857	720.56036	-1207.00952	437.27707	939.97375	-1565.5636	454.08374	948.58105	-1327.95825	278.06952	964.04327	-1504.87256	290.34595	979.51038	-1356.53943	378.17538	635.20239	-1616.28784	387.62561	455.16638	-1598.06787	233.05032	332.82462	-1580.24902	85.19806	192.90758	-1526.30298	41.24966	201.90013	-1479.38245	144.86017	54.74374	-1514.07153	411.81281	655.27979	-1285.97498	439.31799	476.55823	-1325.2417	411.52505	288.79068	-1323.01428	406.71555	73.32391	-1374.73645	363.25955	41.13515	-1426.14563	549.17255	38.37164	-1390.65649	NaN	NaN	NaN	NaN	NaN	NaN	NaN	NaN	NaN	NaN	NaN	NaN	NaN	NaN	NaN	NaN	NaN	NaN	NaN	NaN	NaN	NaN	NaN	NaN
276	2.75	478.62369	1627.62769	-1481.37109	458.84009	1626.07703	-1349.33105	350.5087	1586.66992	-1496.98926	336.01498	1584.77246	-1366.57556	312.38223	1422.04175	-1439.94006	284.17477	1107.15027	-1440.04504	435.71207	1347.30798	-1437.0791	482.06662	1183.57788	-1448.11169	262.41711	1242.31897	-1345.28186	395.58002	1385.875	-1593.05847	404.87799	1189.78015	-1665.1698	423.24136	1067.59851	-1676.24194	461.98318	943.06067	-1673.47046	489.18484	827.54016	-1640.92944	471.5199	830.61969	-1693.90356	490.26709	747.74365	-1681.09045	388.97702	1364.51904	-1277.86926	398.45099	1139.87012	-1209.81787	418.47549	1028.55164	-1199.19958	439.23309	893.02356	-1200.24133	470.64191	799.34015	-1238.44128	441.41299	792.57556	-1192.80017	463.58041	721.62323	-1205.68774	443.73788	940.06488	-1565.10681	461.28491	948.93097	-1327.44128	285.02887	963.29053	-1504.0658	297.40051	979.43475	-1355.90063	389.74319	635.70148	-1616.09534	403.28427	456.01376	-1599.02258	248.79175	334.02109	-1580.74109	100.80475	194.63774	-1526.62964	56.56638	202.81165	-1479.29211	161.37114	57.00127	-1517.00769	417.93924	655.10828	-1285.68701	443.87442	476.39099	-1325.24438	414.1539	288.77454	-1323.22742	406.98264	73.35485	-1374.96973	363.32797	41.21581	-1426.30054	549.23969	38.36451	-1390.70862	392.31317	1687.83337	-1436.99695	NaN	NaN	NaN	NaN	NaN	NaN	NaN	NaN	NaN	NaN	NaN	NaN	NaN	NaN	NaN	NaN	NaN	NaN	NaN	NaN	NaN
277	2.76	486.43057	1627.55188	-1481.40637	467.0152	1626.04199	-1349.3092	358.2345	1586.79675	-1496.70142	344.08127	1584.86157	-1366.14734	319.89804	1422.29102	-1439.36462	291.03769	1107.44019	-1439.42322	442.85608	1347.24976	-1437.13818	488.90186	1183.44751	-1448.20093	269.74149	1242.89453	-1344.47705	401.91888	1385.71765	-1593.01172	409.65369	1189.47485	-1665.27271	427.70474	1067.22961	-1676.39856	465.6575	942.40533	-1673.64978	491.97034	826.68311	-1641.40002	474.47165	830.02258	-1694.48608	493.02872	747.19281	-1682.00818	397.28363	1364.57373	-1277.70972	407.89331	1140.14612	-1209.14612	428.82278	1028.96118	-1198.58643	450.57059	893.68176	-1199.27979	481.90182	800.06775	-1237.69153	453.49673	793.26862	-1191.58118	476.90961	722.7467	-1204.35364	450.29318	940.40771	-1564.85461	468.35202	949.21417	-1326.97559	291.59357	963.0611	-1503.30676	304.40628	979.30981	-1355.18604	401.43805	636.39392	-1615.85632	418.68652	457.0094	-1599.74866	264.9429	334.72189	-1581.34314	117.1056	195.35808	-1527.19653	72.45378	202.66002	-1479.58899	178.83208	58.46146	-1519.18103	424.20032	655.10492	-1285.57764	448.47028	476.26645	-1325.26196	416.93283	288.77811	-1323.48193	407.20062	73.35702	-1375.17529	363.22083	41.25591	-1426.22095	549.32898	38.35183	-1390.82556	401.12741	1688.33252	-1436.80383	NaN	NaN	NaN	NaN	NaN	NaN	NaN	NaN	NaN	NaN	NaN	NaN	NaN	NaN	NaN	NaN	NaN	NaN	NaN	NaN	NaN
278	2.77	494.32318	1627.52698	-1481.43958	475.20798	1625.95178	-1349.26978	365.94553	1587.04285	-1496.45447	352.14813	1585.12195	-1365.9342	327.16077	1422.78345	-1438.94983	297.80273	1107.7644	-1438.63892	450.02505	1347.30579	-1437.27441	495.73407	1183.45508	-1448.24475	277.103	1243.39417	-1343.72888	408.38489	1385.68286	-1592.97705	414.29581	1189.30164	-1665.37183	432.02478	1066.98901	-1676.54443	469.28351	941.96954	-1674.06128	494.91269	826.00879	-1641.89014	477.49149	829.63275	-1694.92969	495.98193	746.90863	-1682.96375	405.31982	1364.79846	-1277.62012	417.41971	1140.60999	-1208.61365	439.10574	1029.62183	-1197.83728	461.81372	894.50769	-1198.37695	493.93707	801.22998	-1236.73547	465.8425	794.21735	-1190.64441	490.13538	724.14771	-1203.05225	456.75348	941.03119	-1564.27881	475.19287	949.37122	-1326.41638	298.1297	963.13763	-1502.5304	310.97794	979.25671	-1354.36267	412.63431	637.06561	-1615.89575	434.06885	458.21954	-1600.34875	281.37604	335.07825	-1581.87268	134.05354	195.16917	-1527.87256	88.95137	201.49101	-1480.22644	198.23358	59.79497	-1520.99988	430.04071	654.86053	-1284.98999	453.17856	476.05588	-1325.40381	419.83102	288.73047	-1323.68811	407.40259	73.52168	-1375.39856	363.23508	41.2173	-1426.22046	549.3949	38.33153	-1390.89771	NaN	NaN	NaN	NaN	NaN	NaN	NaN	NaN	NaN	NaN	NaN	NaN	NaN	NaN	NaN	NaN	NaN	NaN	NaN	NaN	NaN	NaN	NaN	NaN
279	2.78	502.28531	1627.4032	-1481.599	483.53616	1625.84167	-1349.39233	373.76044	1587.40662	-1496.30481	360.23108	1585.47693	-1365.71887	334.48007	1422.9989	-1438.38953	304.32336	1108.43372	-1438.10107	457.13431	1347.40515	-1437.37854	502.4758	1183.48328	-1448.33142	284.49121	1243.9021	-1343.01147	414.60223	1385.88647	-1593.0083	418.81686	1189.29993	-1665.52905	436.1257	1066.94629	-1676.79956	472.85419	941.7561	-1674.34692	497.90921	825.64716	-1642.37463	480.37854	829.50464	-1695.51941	499.06284	746.82489	-1683.8291	413.45746	1365.12024	-1277.57666	426.84656	1141.17017	-1208.16858	449.40454	1030.45386	-1197.17224	473.13797	895.51013	-1197.55762	505.62051	802.39862	-1235.95276	478.08316	795.30756	-1189.5658	503.38727	725.74939	-1201.83911	463.33826	941.87488	-1563.74622	482.09097	949.39417	-1325.88879	304.66428	963.36127	-1501.79846	318.08524	979.11865	-1353.71924	424.15677	637.87274	-1615.57556	449.258	459.48083	-1600.72192	298.20975	334.99173	-1582.36316	151.77411	194.07739	-1528.67639	106.02744	199.24072	-1481.41113	219.58424	60.59989	-1522.22791	436.44781	654.56104	-1285.39063	457.86722	475.76437	-1325.6593	422.79849	288.62564	-1323.86694	407.586	73.76928	-1375.64197	363.89117	41.30592	-1426.60474	549.46716	38.33563	-1390.98425	413.41055	1688.3374	-1437.64453	NaN	NaN	NaN	NaN	NaN	NaN	NaN	NaN	NaN	NaN	NaN	NaN	NaN	NaN	NaN	NaN	NaN	NaN	NaN	NaN	NaN
280	2.79	510.27264	1627.22266	-1481.79883	491.86386	1625.71924	-1349.58423	381.49023	1587.90967	-1496.21558	368.35251	1586.02722	-1365.61548	341.66986	1423.32092	-1438.01282	311.32498	1108.4939	-1437.07971	464.17969	1347.42969	-1437.54919	509.12863	1183.44775	-1448.41699	291.7287	1244.49255	-1342.31641	420.75507	1386.04651	-1592.99829	423.26132	1189.35144	-1665.68298	439.99377	1066.92688	-1677.06348	476.31412	941.67352	-1674.83521	501.21832	825.49805	-1643.03491	483.41309	829.36261	-1695.91235	502.22522	746.88684	-1684.69995	421.23181	1365.53711	-1277.54858	436.3306	1141.896	-1207.80762	459.70889	1031.40283	-1196.73962	484.56775	896.71008	-1196.84485	517.49255	803.7995	-1235.25598	490.34961	796.58087	-1188.60596	516.50067	727.38074	-1200.74036	469.94131	942.74591	-1563.32764	488.87955	949.3725	-1325.36438	311.20956	963.69354	-1501.05481	325.01837	978.96393	-1352.9646	436.29214	638.75507	-1614.72571	464.48358	460.98605	-1600.73181	315.2601	334.63101	-1582.80713	170.22551	192.18501	-1529.57068	123.46136	195.93306	-1482.55212	241.55414	60.96008	-1522.83374	441.7309	654.71393	-1285.5658	462.66736	475.5119	-1325.94275	425.76813	288.51541	-1324.10925	407.79532	73.88719	-1375.82068	363.90948	41.45168	-1426.66187	549.54382	38.33216	-1391.0968	421.78522	1688.42065	-1437.49243	NaN	NaN	NaN	NaN	NaN	NaN	NaN	NaN	NaN	NaN	NaN	NaN	NaN	NaN	NaN	NaN	NaN	NaN	NaN	NaN	NaN
281	2.8	518.27832	1626.97424	-1482.0448	500.15134	1625.57678	-1349.77966	389.24655	1588.47729	-1496.19592	376.39078	1586.59363	-1365.53552	348.71835	1423.76184	-1437.73474	317.95901	1108.92102	-1436.26196	471.20438	1347.58801	-1437.84326	515.85144	1183.52039	-1448.59497	299.11157	1245.00635	-1341.56262	426.7569	1386.34363	-1593.05078	427.67264	1189.5072	-1665.78882	443.8194	1067.06702	-1677.35876	479.73697	941.69006	-1675.27319	504.08875	825.32404	-1643.54932	486.03421	829.38434	-1696.32959	505.47247	747.1214	-1685.58398	429.07458	1366.04944	-1277.54785	445.70261	1142.74658	-1207.47986	469.99948	1032.47046	-1196.27393	495.94305	898.00824	-1196.15894	529.34119	805.33258	-1234.66199	502.76376	798.01373	-1187.80322	529.6084	729.14203	-1199.69653	476.42908	943.57678	-1562.85425	495.70776	949.28693	-1324.90332	317.75	964.18896	-1500.39502	332.04709	978.7793	-1352.27808	447.37457	639.85657	-1614.93591	479.73465	462.68045	-1600.36926	332.61288	333.95813	-1583.22607	189.3869	189.48195	-1530.60864	141.79887	191.52628	-1484.01233	265.37582	61.13833	-1523.30908	448.43207	654.38477	-1285.82947	467.33322	475.20959	-1326.15088	428.65637	288.46698	-1324.35278	408.03519	74.00371	-1375.94702	363.94098	41.56799	-1426.67908	549.59161	38.30534	-1391.16443	430.74466	1688.73694	-1437.88708	NaN	NaN	NaN	NaN	NaN	NaN	NaN	NaN	NaN	NaN	NaN	NaN	NaN	NaN	NaN	NaN	NaN	NaN	NaN	NaN	NaN
